<svg xmlns="http://www.w3.org/2000/svg" viewBox="0 0 1024 1024">
  <defs>
    <!-- Background Gradient: Flatter, very dark gray matching Antigravity exactly -->
    <linearGradient id="iconGradient" x1="0%" y1="0%" x2="100%" y2="100%">
      <stop offset="0%" style="stop-color:#1c1c1f;stop-opacity:1" />
      <stop offset="100%" style="stop-color:#121214;stop-opacity:1" />
    </linearGradient>

    <!-- Inner Glow Gradient (Rim Light: Top-Left White to Bottom-Right Black) -->
    <linearGradient id="innerGlow" x1="0%" y1="0%" x2="100%" y2="100%">
      <stop offset="0%" style="stop-color:#FFFFFF;stop-opacity:0.8" />
      <stop offset="40%" style="stop-color:#FFFFFF;stop-opacity:0.0" />
      <stop offset="60%" style="stop-color:#000000;stop-opacity:0.0" />
      <stop offset="100%" style="stop-color:#000000;stop-opacity:0.9" />
    </linearGradient>

    <!-- macOS Drop Shadow -->
    <filter id="macShadow" x="-20%" y="-20%" width="140%" height="140%">
      <feDropShadow dx="0" dy="25" stdDeviation="25" flood-color="#000000" flood-opacity="0.35" result="shadow1"/>
      <feDropShadow dx="0" dy="8" stdDeviation="8" flood-color="#000000" flood-opacity="0.25" result="shadow2"/>
      <feMerge>
        <feMergeNode in="shadow1"/>
        <feMergeNode in="shadow2"/>
        <feMergeNode in="SourceGraphic"/>
      </feMerge>
    </filter>

    <clipPath id="squircleClip">
      <path d="M 944.00,512.00 L 943.97,591.97 L 943.89,618.74 L 943.75,638.37 L 943.56,654.44 L 943.31,668.29 L 943.01,680.59 L 942.66,691.72 L 942.24,701.95 L 941.78,711.43 L 941.25,720.30 L 940.67,728.64 L 940.04,736.53 L 939.35,744.02 L 938.61,751.16 L 937.80,757.98 L 936.95,764.52 L 936.03,770.80 L 935.06,776.84 L 934.03,782.66 L 932.95,788.27 L 931.80,793.70 L 930.60,798.95 L 929.34,804.03 L 928.03,808.96 L 926.65,813.74 L 925.21,818.37 L 923.72,822.88 L 922.16,827.25 L 920.55,831.50 L 918.87,835.63 L 917.13,839.66 L 915.33,843.57 L 913.46,847.37 L 911.54,851.08 L 909.54,854.69 L 907.49,858.20 L 905.36,861.62 L 903.18,864.95 L 900.92,868.19 L 898.60,871.35 L 896.20,874.42 L 893.74,877.41 L 891.20,880.32 L 888.59,883.15 L 885.91,885.91 L 883.15,888.59 L 880.32,891.20 L 877.41,893.74 L 874.42,896.20 L 871.35,898.60 L 868.19,900.92 L 864.95,903.18 L 861.62,905.36 L 858.20,907.49 L 854.69,909.54 L 851.08,911.54 L 847.37,913.46 L 843.57,915.33 L 839.66,917.13 L 835.63,918.87 L 831.50,920.55 L 827.25,922.16 L 822.88,923.72 L 818.37,925.21 L 813.74,926.65 L 808.96,928.03 L 804.03,929.34 L 798.95,930.60 L 793.70,931.80 L 788.27,932.95 L 782.66,934.03 L 776.84,935.06 L 770.80,936.03 L 764.52,936.95 L 757.98,937.80 L 751.16,938.61 L 744.02,939.35 L 736.53,940.04 L 728.64,940.67 L 720.30,941.25 L 711.43,941.78 L 701.95,942.24 L 691.72,942.66 L 680.59,943.01 L 668.29,943.31 L 654.44,943.56 L 638.37,943.75 L 618.74,943.89 L 591.97,943.97 L 512.00,944.00 L 432.03,943.97 L 405.26,943.89 L 385.63,943.75 L 369.56,943.56 L 355.71,943.31 L 343.41,943.01 L 332.28,942.66 L 322.05,942.24 L 312.57,941.78 L 303.70,941.25 L 295.36,940.67 L 287.47,940.04 L 279.98,939.35 L 272.84,938.61 L 266.02,937.80 L 259.48,936.95 L 253.20,936.03 L 247.16,935.06 L 241.34,934.03 L 235.73,932.95 L 230.30,931.80 L 225.05,930.60 L 219.97,929.34 L 215.04,928.03 L 210.26,926.65 L 205.63,925.21 L 201.12,923.72 L 196.75,922.16 L 192.50,920.55 L 188.37,918.87 L 184.34,917.13 L 180.43,915.33 L 176.63,913.46 L 172.92,911.54 L 169.31,909.54 L 165.80,907.49 L 162.38,905.36 L 159.05,903.18 L 155.81,900.92 L 152.65,898.60 L 149.58,896.20 L 146.59,893.74 L 143.68,891.20 L 140.85,888.59 L 138.09,885.91 L 135.41,883.15 L 132.80,880.32 L 130.26,877.41 L 127.80,874.42 L 125.40,871.35 L 123.08,868.19 L 120.82,864.95 L 118.64,861.62 L 116.51,858.20 L 114.46,854.69 L 112.46,851.08 L 110.54,847.37 L 108.67,843.57 L 106.87,839.66 L 105.13,835.63 L 103.45,831.50 L 101.84,827.25 L 100.28,822.88 L 98.79,818.37 L 97.35,813.74 L 95.97,808.96 L 94.66,804.03 L 93.40,798.95 L 92.20,793.70 L 91.05,788.27 L 89.97,782.66 L 88.94,776.84 L 87.97,770.80 L 87.05,764.52 L 86.20,757.98 L 85.39,751.16 L 84.65,744.02 L 83.96,736.53 L 83.33,728.64 L 82.75,720.30 L 82.22,711.43 L 81.76,701.95 L 81.34,691.72 L 80.99,680.59 L 80.69,668.29 L 80.44,654.44 L 80.25,638.37 L 80.11,618.74 L 80.03,591.97 L 80.00,512.00 L 80.03,432.03 L 80.11,405.26 L 80.25,385.63 L 80.44,369.56 L 80.69,355.71 L 80.99,343.41 L 81.34,332.28 L 81.76,322.05 L 82.22,312.57 L 82.75,303.70 L 83.33,295.36 L 83.96,287.47 L 84.65,279.98 L 85.39,272.84 L 86.20,266.02 L 87.05,259.48 L 87.97,253.20 L 88.94,247.16 L 89.97,241.34 L 91.05,235.73 L 92.20,230.30 L 93.40,225.05 L 94.66,219.97 L 95.97,215.04 L 97.35,210.26 L 98.79,205.63 L 100.28,201.12 L 101.84,196.75 L 103.45,192.50 L 105.13,188.37 L 106.87,184.34 L 108.67,180.43 L 110.54,176.63 L 112.46,172.92 L 114.46,169.31 L 116.51,165.80 L 118.64,162.38 L 120.82,159.05 L 123.08,155.81 L 125.40,152.65 L 127.80,149.58 L 130.26,146.59 L 132.80,143.68 L 135.41,140.85 L 138.09,138.09 L 140.85,135.41 L 143.68,132.80 L 146.59,130.26 L 149.58,127.80 L 152.65,125.40 L 155.81,123.08 L 159.05,120.82 L 162.38,118.64 L 165.80,116.51 L 169.31,114.46 L 172.92,112.46 L 176.63,110.54 L 180.43,108.67 L 184.34,106.87 L 188.37,105.13 L 192.50,103.45 L 196.75,101.84 L 201.12,100.28 L 205.63,98.79 L 210.26,97.35 L 215.04,95.97 L 219.97,94.66 L 225.05,93.40 L 230.30,92.20 L 235.73,91.05 L 241.34,89.97 L 247.16,88.94 L 253.20,87.97 L 259.48,87.05 L 266.02,86.20 L 272.84,85.39 L 279.98,84.65 L 287.47,83.96 L 295.36,83.33 L 303.70,82.75 L 312.57,82.22 L 322.05,81.76 L 332.28,81.34 L 343.41,80.99 L 355.71,80.69 L 369.56,80.44 L 385.63,80.25 L 405.26,80.11 L 432.03,80.03 L 512.00,80.00 L 591.97,80.03 L 618.74,80.11 L 638.37,80.25 L 654.44,80.44 L 668.29,80.69 L 680.59,80.99 L 691.72,81.34 L 701.95,81.76 L 711.43,82.22 L 720.30,82.75 L 728.64,83.33 L 736.53,83.96 L 744.02,84.65 L 751.16,85.39 L 757.98,86.20 L 764.52,87.05 L 770.80,87.97 L 776.84,88.94 L 782.66,89.97 L 788.27,91.05 L 793.70,92.20 L 798.95,93.40 L 804.03,94.66 L 808.96,95.97 L 813.74,97.35 L 818.37,98.79 L 822.88,100.28 L 827.25,101.84 L 831.50,103.45 L 835.63,105.13 L 839.66,106.87 L 843.57,108.67 L 847.37,110.54 L 851.08,112.46 L 854.69,114.46 L 858.20,116.51 L 861.62,118.64 L 864.95,120.82 L 868.19,123.08 L 871.35,125.40 L 874.42,127.80 L 877.41,130.26 L 880.32,132.80 L 883.15,135.41 L 885.91,138.09 L 888.59,140.85 L 891.20,143.68 L 893.74,146.59 L 896.20,149.58 L 898.60,152.65 L 900.92,155.81 L 903.18,159.05 L 905.36,162.38 L 907.49,165.80 L 909.54,169.31 L 911.54,172.92 L 913.46,176.63 L 915.33,180.43 L 917.13,184.34 L 918.87,188.37 L 920.55,192.50 L 922.16,196.75 L 923.72,201.12 L 925.21,205.63 L 926.65,210.26 L 928.03,215.04 L 929.34,219.97 L 930.60,225.05 L 931.80,230.30 L 932.95,235.73 L 934.03,241.34 L 935.06,247.16 L 936.03,253.20 L 936.95,259.48 L 937.80,266.02 L 938.61,272.84 L 939.35,279.98 L 940.04,287.47 L 940.67,295.36 L 941.25,303.70 L 941.78,312.57 L 942.24,322.05 L 942.66,332.28 L 943.01,343.41 L 943.31,355.71 L 943.56,369.56 L 943.75,385.63 L 943.89,405.26 L 943.97,432.03 Z" />
    </clipPath>
  </defs>

  <!-- Apply shadow to the base true squircle -->
  <g filter="url(#macShadow)">
    <path d="M 944.00,512.00 L 943.97,591.97 L 943.89,618.74 L 943.75,638.37 L 943.56,654.44 L 943.31,668.29 L 943.01,680.59 L 942.66,691.72 L 942.24,701.95 L 941.78,711.43 L 941.25,720.30 L 940.67,728.64 L 940.04,736.53 L 939.35,744.02 L 938.61,751.16 L 937.80,757.98 L 936.95,764.52 L 936.03,770.80 L 935.06,776.84 L 934.03,782.66 L 932.95,788.27 L 931.80,793.70 L 930.60,798.95 L 929.34,804.03 L 928.03,808.96 L 926.65,813.74 L 925.21,818.37 L 923.72,822.88 L 922.16,827.25 L 920.55,831.50 L 918.87,835.63 L 917.13,839.66 L 915.33,843.57 L 913.46,847.37 L 911.54,851.08 L 909.54,854.69 L 907.49,858.20 L 905.36,861.62 L 903.18,864.95 L 900.92,868.19 L 898.60,871.35 L 896.20,874.42 L 893.74,877.41 L 891.20,880.32 L 888.59,883.15 L 885.91,885.91 L 883.15,888.59 L 880.32,891.20 L 877.41,893.74 L 874.42,896.20 L 871.35,898.60 L 868.19,900.92 L 864.95,903.18 L 861.62,905.36 L 858.20,907.49 L 854.69,909.54 L 851.08,911.54 L 847.37,913.46 L 843.57,915.33 L 839.66,917.13 L 835.63,918.87 L 831.50,920.55 L 827.25,922.16 L 822.88,923.72 L 818.37,925.21 L 813.74,926.65 L 808.96,928.03 L 804.03,929.34 L 798.95,930.60 L 793.70,931.80 L 788.27,932.95 L 782.66,934.03 L 776.84,935.06 L 770.80,936.03 L 764.52,936.95 L 757.98,937.80 L 751.16,938.61 L 744.02,939.35 L 736.53,940.04 L 728.64,940.67 L 720.30,941.25 L 711.43,941.78 L 701.95,942.24 L 691.72,942.66 L 680.59,943.01 L 668.29,943.31 L 654.44,943.56 L 638.37,943.75 L 618.74,943.89 L 591.97,943.97 L 512.00,944.00 L 432.03,943.97 L 405.26,943.89 L 385.63,943.75 L 369.56,943.56 L 355.71,943.31 L 343.41,943.01 L 332.28,942.66 L 322.05,942.24 L 312.57,941.78 L 303.70,941.25 L 295.36,940.67 L 287.47,940.04 L 279.98,939.35 L 272.84,938.61 L 266.02,937.80 L 259.48,936.95 L 253.20,936.03 L 247.16,935.06 L 241.34,934.03 L 235.73,932.95 L 230.30,931.80 L 225.05,930.60 L 219.97,929.34 L 215.04,928.03 L 210.26,926.65 L 205.63,925.21 L 201.12,923.72 L 196.75,922.16 L 192.50,920.55 L 188.37,918.87 L 184.34,917.13 L 180.43,915.33 L 176.63,913.46 L 172.92,911.54 L 169.31,909.54 L 165.80,907.49 L 162.38,905.36 L 159.05,903.18 L 155.81,900.92 L 152.65,898.60 L 149.58,896.20 L 146.59,893.74 L 143.68,891.20 L 140.85,888.59 L 138.09,885.91 L 135.41,883.15 L 132.80,880.32 L 130.26,877.41 L 127.80,874.42 L 125.40,871.35 L 123.08,868.19 L 120.82,864.95 L 118.64,861.62 L 116.51,858.20 L 114.46,854.69 L 112.46,851.08 L 110.54,847.37 L 108.67,843.57 L 106.87,839.66 L 105.13,835.63 L 103.45,831.50 L 101.84,827.25 L 100.28,822.88 L 98.79,818.37 L 97.35,813.74 L 95.97,808.96 L 94.66,804.03 L 93.40,798.95 L 92.20,793.70 L 91.05,788.27 L 89.97,782.66 L 88.94,776.84 L 87.97,770.80 L 87.05,764.52 L 86.20,757.98 L 85.39,751.16 L 84.65,744.02 L 83.96,736.53 L 83.33,728.64 L 82.75,720.30 L 82.22,711.43 L 81.76,701.95 L 81.34,691.72 L 80.99,680.59 L 80.69,668.29 L 80.44,654.44 L 80.25,638.37 L 80.11,618.74 L 80.03,591.97 L 80.00,512.00 L 80.03,432.03 L 80.11,405.26 L 80.25,385.63 L 80.44,369.56 L 80.69,355.71 L 80.99,343.41 L 81.34,332.28 L 81.76,322.05 L 82.22,312.57 L 82.75,303.70 L 83.33,295.36 L 83.96,287.47 L 84.65,279.98 L 85.39,272.84 L 86.20,266.02 L 87.05,259.48 L 87.97,253.20 L 88.94,247.16 L 89.97,241.34 L 91.05,235.73 L 92.20,230.30 L 93.40,225.05 L 94.66,219.97 L 95.97,215.04 L 97.35,210.26 L 98.79,205.63 L 100.28,201.12 L 101.84,196.75 L 103.45,192.50 L 105.13,188.37 L 106.87,184.34 L 108.67,180.43 L 110.54,176.63 L 112.46,172.92 L 114.46,169.31 L 116.51,165.80 L 118.64,162.38 L 120.82,159.05 L 123.08,155.81 L 125.40,152.65 L 127.80,149.58 L 130.26,146.59 L 132.80,143.68 L 135.41,140.85 L 138.09,138.09 L 140.85,135.41 L 143.68,132.80 L 146.59,130.26 L 149.58,127.80 L 152.65,125.40 L 155.81,123.08 L 159.05,120.82 L 162.38,118.64 L 165.80,116.51 L 169.31,114.46 L 172.92,112.46 L 176.63,110.54 L 180.43,108.67 L 184.34,106.87 L 188.37,105.13 L 192.50,103.45 L 196.75,101.84 L 201.12,100.28 L 205.63,98.79 L 210.26,97.35 L 215.04,95.97 L 219.97,94.66 L 225.05,93.40 L 230.30,92.20 L 235.73,91.05 L 241.34,89.97 L 247.16,88.94 L 253.20,87.97 L 259.48,87.05 L 266.02,86.20 L 272.84,85.39 L 279.98,84.65 L 287.47,83.96 L 295.36,83.33 L 303.70,82.75 L 312.57,82.22 L 322.05,81.76 L 332.28,81.34 L 343.41,80.99 L 355.71,80.69 L 369.56,80.44 L 385.63,80.25 L 405.26,80.11 L 432.03,80.03 L 512.00,80.00 L 591.97,80.03 L 618.74,80.11 L 638.37,80.25 L 654.44,80.44 L 668.29,80.69 L 680.59,80.99 L 691.72,81.34 L 701.95,81.76 L 711.43,82.22 L 720.30,82.75 L 728.64,83.33 L 736.53,83.96 L 744.02,84.65 L 751.16,85.39 L 757.98,86.20 L 764.52,87.05 L 770.80,87.97 L 776.84,88.94 L 782.66,89.97 L 788.27,91.05 L 793.70,92.20 L 798.95,93.40 L 804.03,94.66 L 808.96,95.97 L 813.74,97.35 L 818.37,98.79 L 822.88,100.28 L 827.25,101.84 L 831.50,103.45 L 835.63,105.13 L 839.66,106.87 L 843.57,108.67 L 847.37,110.54 L 851.08,112.46 L 854.69,114.46 L 858.20,116.51 L 861.62,118.64 L 864.95,120.82 L 868.19,123.08 L 871.35,125.40 L 874.42,127.80 L 877.41,130.26 L 880.32,132.80 L 883.15,135.41 L 885.91,138.09 L 888.59,140.85 L 891.20,143.68 L 893.74,146.59 L 896.20,149.58 L 898.60,152.65 L 900.92,155.81 L 903.18,159.05 L 905.36,162.38 L 907.49,165.80 L 909.54,169.31 L 911.54,172.92 L 913.46,176.63 L 915.33,180.43 L 917.13,184.34 L 918.87,188.37 L 920.55,192.50 L 922.16,196.75 L 923.72,201.12 L 925.21,205.63 L 926.65,210.26 L 928.03,215.04 L 929.34,219.97 L 930.60,225.05 L 931.80,230.30 L 932.95,235.73 L 934.03,241.34 L 935.06,247.16 L 936.03,253.20 L 936.95,259.48 L 937.80,266.02 L 938.61,272.84 L 939.35,279.98 L 940.04,287.47 L 940.67,295.36 L 941.25,303.70 L 941.78,312.57 L 942.24,322.05 L 942.66,332.28 L 943.01,343.41 L 943.31,355.71 L 943.56,369.56 L 943.75,385.63 L 943.89,405.26 L 943.97,432.03 Z" fill="url(#iconGradient)" />
  </g>

  <!-- Explicit Grid Lines (Larger squares, solid dark gray line instead of white with opacity) -->
  <path d="M 80 80 L 80 944 M 152 80 L 152 944 M 224 80 L 224 944 M 296 80 L 296 944 M 368 80 L 368 944 M 440 80 L 440 944 M 512 80 L 512 944 M 584 80 L 584 944 M 656 80 L 656 944 M 728 80 L 728 944 M 800 80 L 800 944 M 872 80 L 872 944 M 944 80 L 944 944 M 80 80 L 944 80 M 80 152 L 944 152 M 80 224 L 944 224 M 80 296 L 944 296 M 80 368 L 944 368 M 80 440 L 944 440 M 80 512 L 944 512 M 80 584 L 944 584 M 80 656 L 944 656 M 80 728 L 944 728 M 80 800 L 944 800 M 80 872 L 944 872 M 80 944 L 944 944" fill="none" stroke="#2c2c30" stroke-width="3" clip-path="url(#squircleClip)" />

  <!-- Inner border/glow for that premium 3D look on a true squircle -->
  <path d="M 942.00,512.00 L 941.97,591.60 L 941.89,618.25 L 941.75,637.79 L 941.56,653.78 L 941.32,667.57 L 941.02,679.81 L 940.66,690.89 L 940.25,701.07 L 939.79,710.51 L 939.27,719.33 L 938.69,727.63 L 938.06,735.49 L 937.37,742.94 L 936.63,750.05 L 935.83,756.84 L 934.98,763.35 L 934.07,769.60 L 933.10,775.61 L 932.08,781.40 L 931.00,786.99 L 929.86,792.40 L 928.67,797.62 L 927.41,802.68 L 926.10,807.58 L 924.73,812.34 L 923.30,816.96 L 921.81,821.44 L 920.26,825.79 L 918.66,830.02 L 916.99,834.14 L 915.25,838.14 L 913.46,842.03 L 911.61,845.82 L 909.69,849.51 L 907.70,853.10 L 905.66,856.60 L 903.54,860.00 L 901.36,863.31 L 899.12,866.54 L 896.81,869.68 L 894.42,872.74 L 891.97,875.72 L 889.45,878.62 L 886.85,881.44 L 884.18,884.18 L 881.44,886.85 L 878.62,889.45 L 875.72,891.97 L 872.74,894.42 L 869.68,896.81 L 866.54,899.12 L 863.31,901.36 L 860.00,903.54 L 856.60,905.66 L 853.10,907.70 L 849.51,909.69 L 845.82,911.61 L 842.03,913.46 L 838.14,915.25 L 834.14,916.99 L 830.02,918.66 L 825.79,920.26 L 821.44,921.81 L 816.96,923.30 L 812.34,924.73 L 807.58,926.10 L 802.68,927.41 L 797.62,928.67 L 792.40,929.86 L 786.99,931.00 L 781.40,932.08 L 775.61,933.10 L 769.60,934.07 L 763.35,934.98 L 756.84,935.83 L 750.05,936.63 L 742.94,937.37 L 735.49,938.06 L 727.63,938.69 L 719.33,939.27 L 710.51,939.79 L 701.07,940.25 L 690.89,940.66 L 679.81,941.02 L 667.57,941.32 L 653.78,941.56 L 637.79,941.75 L 618.25,941.89 L 591.60,941.97 L 512.00,942.00 L 432.40,941.97 L 405.75,941.89 L 386.21,941.75 L 370.22,941.56 L 356.43,941.32 L 344.19,941.02 L 333.11,940.66 L 322.93,940.25 L 313.49,939.79 L 304.67,939.27 L 296.37,938.69 L 288.51,938.06 L 281.06,937.37 L 273.95,936.63 L 267.16,935.83 L 260.65,934.98 L 254.40,934.07 L 248.39,933.10 L 242.60,932.08 L 237.01,931.00 L 231.60,929.86 L 226.38,928.67 L 221.32,927.41 L 216.42,926.10 L 211.66,924.73 L 207.04,923.30 L 202.56,921.81 L 198.21,920.26 L 193.98,918.66 L 189.86,916.99 L 185.86,915.25 L 181.97,913.46 L 178.18,911.61 L 174.49,909.69 L 170.90,907.70 L 167.40,905.66 L 164.00,903.54 L 160.69,901.36 L 157.46,899.12 L 154.32,896.81 L 151.26,894.42 L 148.28,891.97 L 145.38,889.45 L 142.56,886.85 L 139.82,884.18 L 137.15,881.44 L 134.55,878.62 L 132.03,875.72 L 129.58,872.74 L 127.19,869.68 L 124.88,866.54 L 122.64,863.31 L 120.46,860.00 L 118.34,856.60 L 116.30,853.10 L 114.31,849.51 L 112.39,845.82 L 110.54,842.03 L 108.75,838.14 L 107.01,834.14 L 105.34,830.02 L 103.74,825.79 L 102.19,821.44 L 100.70,816.96 L 99.27,812.34 L 97.90,807.58 L 96.59,802.68 L 95.33,797.62 L 94.14,792.40 L 93.00,786.99 L 91.92,781.40 L 90.90,775.61 L 89.93,769.60 L 89.02,763.35 L 88.17,756.84 L 87.37,750.05 L 86.63,742.94 L 85.94,735.49 L 85.31,727.63 L 84.73,719.33 L 84.21,710.51 L 83.75,701.07 L 83.34,690.89 L 82.98,679.81 L 82.68,667.57 L 82.44,653.78 L 82.25,637.79 L 82.11,618.25 L 82.03,591.60 L 82.00,512.00 L 82.03,432.40 L 82.11,405.75 L 82.25,386.21 L 82.44,370.22 L 82.68,356.43 L 82.98,344.19 L 83.34,333.11 L 83.75,322.93 L 84.21,313.49 L 84.73,304.67 L 85.31,296.37 L 85.94,288.51 L 86.63,281.06 L 87.37,273.95 L 88.17,267.16 L 89.02,260.65 L 89.93,254.40 L 90.90,248.39 L 91.92,242.60 L 93.00,237.01 L 94.14,231.60 L 95.33,226.38 L 96.59,221.32 L 97.90,216.42 L 99.27,211.66 L 100.70,207.04 L 102.19,202.56 L 103.74,198.21 L 105.34,193.98 L 107.01,189.86 L 108.75,185.86 L 110.54,181.97 L 112.39,178.18 L 114.31,174.49 L 116.30,170.90 L 118.34,167.40 L 120.46,164.00 L 122.64,160.69 L 124.88,157.46 L 127.19,154.32 L 129.58,151.26 L 132.03,148.28 L 134.55,145.38 L 137.15,142.56 L 139.82,139.82 L 142.56,137.15 L 145.38,134.55 L 148.28,132.03 L 151.26,129.58 L 154.32,127.19 L 157.46,124.88 L 160.69,122.64 L 164.00,120.46 L 167.40,118.34 L 170.90,116.30 L 174.49,114.31 L 178.18,112.39 L 181.97,110.54 L 185.86,108.75 L 189.86,107.01 L 193.98,105.34 L 198.21,103.74 L 202.56,102.19 L 207.04,100.70 L 211.66,99.27 L 216.42,97.90 L 221.32,96.59 L 226.38,95.33 L 231.60,94.14 L 237.01,93.00 L 242.60,91.92 L 248.39,90.90 L 254.40,89.93 L 260.65,89.02 L 267.16,88.17 L 273.95,87.37 L 281.06,86.63 L 288.51,85.94 L 296.37,85.31 L 304.67,84.73 L 313.49,84.21 L 322.93,83.75 L 333.11,83.34 L 344.19,82.98 L 356.43,82.68 L 370.22,82.44 L 386.21,82.25 L 405.75,82.11 L 432.40,82.03 L 512.00,82.00 L 591.60,82.03 L 618.25,82.11 L 637.79,82.25 L 653.78,82.44 L 667.57,82.68 L 679.81,82.98 L 690.89,83.34 L 701.07,83.75 L 710.51,84.21 L 719.33,84.73 L 727.63,85.31 L 735.49,85.94 L 742.94,86.63 L 750.05,87.37 L 756.84,88.17 L 763.35,89.02 L 769.60,89.93 L 775.61,90.90 L 781.40,91.92 L 786.99,93.00 L 792.40,94.14 L 797.62,95.33 L 802.68,96.59 L 807.58,97.90 L 812.34,99.27 L 816.96,100.70 L 821.44,102.19 L 825.79,103.74 L 830.02,105.34 L 834.14,107.01 L 838.14,108.75 L 842.03,110.54 L 845.82,112.39 L 849.51,114.31 L 853.10,116.30 L 856.60,118.34 L 860.00,120.46 L 863.31,122.64 L 866.54,124.88 L 869.68,127.19 L 872.74,129.58 L 875.72,132.03 L 878.62,134.55 L 881.44,137.15 L 884.18,139.82 L 886.85,142.56 L 889.45,145.38 L 891.97,148.28 L 894.42,151.26 L 896.81,154.32 L 899.12,157.46 L 901.36,160.69 L 903.54,164.00 L 905.66,167.40 L 907.70,170.90 L 909.69,174.49 L 911.61,178.18 L 913.46,181.97 L 915.25,185.86 L 916.99,189.86 L 918.66,193.98 L 920.26,198.21 L 921.81,202.56 L 923.30,207.04 L 924.73,211.66 L 926.10,216.42 L 927.41,221.32 L 928.67,226.38 L 929.86,231.60 L 931.00,237.01 L 932.08,242.60 L 933.10,248.39 L 934.07,254.40 L 934.98,260.65 L 935.83,267.16 L 936.63,273.95 L 937.37,281.06 L 938.06,288.51 L 938.69,296.37 L 939.27,304.67 L 939.79,313.49 L 940.25,322.93 L 940.66,333.11 L 941.02,344.19 L 941.32,356.43 L 941.56,370.22 L 941.75,386.21 L 941.89,405.75 L 941.97,432.40 Z" fill="none" stroke="url(#innerGlow)" stroke-width="4" />
  
  <g transform="translate(210, 288) scale(2.2)">
    <path fill="#FFFFFF" d="m257.129 167.188-13.871-27.747V35.571C243.258 16.007 227.25 0 207.684 0H65.398C49.863 0 36.82 9.96 31.961 23.832h32.844s.355-.117.593-.117h142.286c6.523 0 11.859 5.336 11.859 11.855v94.86H53.539V47.547H29.824v92.012l-13.988 27.629c-1.66 3.32-2.492 7.113-2.492 10.789 0 6.406 2.492 12.332 7.113 16.718 4.508 4.39 10.438 6.88 16.602 6.88h198.847c3.438-.24 7.59-.829 10.79-2.49 5.69-2.847 9.843-7.71 11.859-13.757s1.539-12.45-1.305-18.14Zm-220.07 10.671 11.859-23.714h175.129l11.86 23.714Zm0 0" />
  </g>
</svg>
