<svg xmlns="http://www.w3.org/2000/svg" viewBox="0 0 1024 1024">
  <defs>
    <linearGradient id="iconGradient" x1="0%" y1="0%" x2="0%" y2="100%">
      <stop offset="0%" style="stop-color:#2a2a2a;stop-opacity:1" />
      <stop offset="100%" style="stop-color:#111111;stop-opacity:1" />
    </linearGradient>
  </defs>
  <!-- Background rect slightly smaller than 1024 to allow for OS-level padding/shadows -->
  <rect width="900" height="900" x="62" y="62" rx="200" fill="url(#iconGradient)" />
  <!-- Inner border/glow -->
  <rect width="892" height="892" x="66" y="66" rx="196" fill="none" stroke="#FFFFFF" stroke-opacity="0.1" stroke-width="6" />
  
  <!-- Logo centered within the icon -->
  <g transform="translate(112, 118) scale(8)">
    <path
      fill="#FFFFFF"
      d="M78.36 30H71.3l3.34-7.34a4 4 0 1 0-7.28-3.31L62.51 30a5.64 5.64 0 0 0 5.13 8h7.06l-3.34 7.34a4 4 0 1 0 7.28 3.31L83.49 38a5.64 5.64 0 0 0-5.13-8M32 83h28a16 16 0 0 0 16-16v-5a4 4 0 0 0-8 0v5a8 8 0 0 1-8 8H32a8 8 0 0 1-8-8V39a8 8 0 0 1 8-8h18a4 4 0 0 0 0-8H32a16 16 0 0 0-16 16v28a16 16 0 0 0 16 16" />
    <circle 
      cx="35" 
      cy="47" 
      r="4" 
      fill="#FFFFFF" 
    />
    <circle 
      cx="57" 
      cy="47" 
      r="4" 
      fill="#FFFFFF" 
    />
    <path
      fill="#FFFFFF"
      d="M47.36 67.89a8 8 0 0 0 6.36-5.83 7.7 7.7 0 0 0-.1-4.42A2.4 2.4 0 0 0 51.34 56H40.66a2.4 2.4 0 0 0-2.29 1.64A7.7 7.7 0 0 0 38 60a8 8 0 0 0 9.36 7.89" />
   </g>
</svg>
