<svg xmlns="http://www.w3.org/2000/svg" viewBox="0 0 171 77.25" role="img" aria-label="Frappe Local">
  <style>
    .logo-text { fill: currentColor; }
    .logo-mark-bg { fill: #231f20; }
    .logo-mark-fg { fill: #fff; }
    @media (prefers-color-scheme: dark) {
      .logo-text { fill: #fff; }
    }
  </style>
  <rect class="logo-mark-bg" x=".82" y="0" width="75.953" height="75.844" rx="13.37"/>
  <path class="logo-mark-fg" d="m63.766 51.664-2.871-5.742v-21.5c0-4.05-3.313-7.363-7.364-7.363H24.082c-3.219 0-5.918 2.062-6.922 4.933h6.797s.074-.023.125-.023h29.45a2.46 2.46 0 0 1 2.456 2.453v19.637H21.625V26.902h-4.906v19.043l-2.899 5.72a5.05 5.05 0 0 0-.515 2.233c0 1.325.515 2.551 1.472 3.461.934.907 2.16 1.422 3.438 1.422h41.16c.71-.047 1.57-.172 2.23-.515a4.85 4.85 0 0 0 2.458-2.844 4.9 4.9 0 0 0-.27-3.758Zm-45.551 2.211 2.453-4.91h36.25l2.457 4.91Zm0 0"/>
  <path class="logo-text" d="M87.967 56.647V36.162h2.97V53.85h9.28v2.797Zm21.323.422c-1.53 0-2.866-.348-4-1.032q-1.687-1.045-2.608-2.875-.908-1.828-.907-4.218 0-2.39.938-4.22.937-1.825 2.625-2.843 1.701-1.03 3.953-1.031 2.31.001 4 1.047 1.7 1.03 2.625 2.86.92 1.815.922 4.187 0 2.407-.938 4.234-.926 1.828-2.625 2.86c-1.125.683-2.453 1.03-3.984 1.03m0-2.797c1.478 0 2.58-.492 3.298-1.485.726-.988 1.094-2.27 1.094-3.843q-.002-2.39-1.11-3.829-1.095-1.453-3.281-1.453c-.992 0-1.809.227-2.453.672-.649.45-1.125 1.07-1.438 1.86q-.468 1.19-.468 2.75-.002 2.423 1.109 3.875 1.106 1.452 3.25 1.453m17.243 2.798c-1.574 0-2.914-.352-4.015-1.047q-1.642-1.046-2.516-2.875-.88-1.842-.89-4.188c.007-1.582.312-2.984.906-4.203q.888-1.828 2.562-2.86 1.669-1.044 4-1.046 2.515 0 4.297 1.265 1.794 1.254 2.36 3.422l-2.954.86q-.456-1.295-1.453-2.016a3.86 3.86 0 0 0-2.297-.719q-1.47 0-2.406.688-.939.69-1.39 1.89-.458 1.19-.47 2.72.012 2.378 1.079 3.843 1.078 1.47 3.187 1.469 1.437 0 2.328-.657.89-.669 1.36-1.906l3.015.719q-.75 2.237-2.484 3.437-1.734 1.203-4.219 1.204m13.753 0q-1.705-.002-2.86-.625-1.159-.64-1.75-1.688a4.64 4.64 0 0 1-.578-2.297q-.002-1.154.406-2.031a4.05 4.05 0 0 1 1.22-1.5q.808-.622 2-1.016a23 23 0 0 1 2.312-.515q1.295-.234 2.718-.438 1.437-.2 2.844-.406l-1.078.61q.031-1.81-.766-2.688c-.523-.582-1.421-.875-2.703-.875q-1.206 0-2.218.562-1.02.563-1.407 1.86l-2.78-.86q.575-1.968 2.171-3.14 1.605-1.173 4.266-1.172c1.375 0 2.57.234 3.593.703a4.42 4.42 0 0 1 2.235 2.234c.25.5.398 1.032.453 1.594q.094.845.094 1.813v9.453h-2.641V53.13l.516.453q-.957 1.77-2.422 2.625c-.98.57-2.188.86-3.625.86m.531-2.422q1.264.001 2.172-.453.902-.45 1.453-1.141.56-.703.734-1.453.246-.687.282-1.531c.02-.57.03-1.032.03-1.375l.97.359-2.563.375q-1.142.174-2.078.344a11.5 11.5 0 0 0-1.656.39 5 5 0 0 0-1.094.516c-.313.2-.563.437-.75.719q-.281.422-.281 1.031-.001.61.297 1.11.311.502.921.812.609.298 1.563.297m11.622 2.001V35.74h2.969v20.907ZM86.796 26.192V14.786h6.546v1.156h-5.375v3.97h4.422v1.155h-4.422v5.125Zm7.976 0V17.63h1.047v2.062l-.203-.265c.094-.25.21-.477.36-.688q.231-.325.5-.547.34-.28.78-.437.451-.153.891-.188.452-.03.828.063v1.094a3.2 3.2 0 0 0-1.031-.047 1.96 1.96 0 0 0-1.016.437q-.422.344-.64.813-.205.454-.282.969a8 8 0 0 0-.062 1.03v4.266Zm7.848.235c-.649 0-1.188-.117-1.626-.344a2.3 2.3 0 0 1-.984-.922 2.6 2.6 0 0 1-.312-1.265q0-.704.28-1.188a2.3 2.3 0 0 1 .766-.812q.48-.329 1.125-.485c.438-.101.914-.195 1.438-.281a48 48 0 0 1 1.531-.219q.763-.091 1.344-.172l-.422.25q.031-1.265-.484-1.875c-.344-.406-.946-.61-1.797-.61-.586 0-1.078.134-1.485.392q-.598.393-.843 1.25l-1.141-.329c.195-.77.594-1.363 1.188-1.78q.89-.64 2.296-.641 1.172 0 1.985.453.825.439 1.172 1.265c.101.25.172.528.203.828q.047.458.047.938v5.312h-1.032v-2.14l.297.125q-.44 1.096-1.36 1.672c-.605.382-1.335.578-2.187.578m.124-1q.812 0 1.422-.297.62-.293.985-.797.374-.514.484-1.156.094-.42.094-.906.013-.5.015-.75l.454.234a46 46 0 0 1-1.297.156q-.691.082-1.36.188-.674.095-1.203.25a3 3 0 0 0-.703.28q-.346.19-.562.5-.222.317-.22.767c0 .25.063.492.188.718.125.23.32.422.594.578.281.157.648.235 1.11.235m10.066 1q-1.19-.002-2-.594-.814-.593-1.234-1.625-.422-1.03-.422-2.297 0-1.294.422-2.312c.281-.688.695-1.223 1.25-1.61q.825-.592 2.031-.593 1.17.001 2 .593c.563.399.992.938 1.297 1.625q.451 1.02.453 2.297 0 1.283-.453 2.313a3.8 3.8 0 0 1-1.312 1.609c-.563.395-1.243.594-2.032.594m-3.859 3.562V17.63h1.047v6.454h.14v5.906Zm3.734-4.64q.903.001 1.5-.453.592-.45.891-1.235c.195-.52.297-1.101.297-1.75a5 5 0 0 0-.297-1.75q-.3-.78-.89-1.219-.598-.451-1.516-.453c-.606 0-1.106.149-1.5.438q-.582.422-.875 1.203-.299.767-.297 1.781 0 .985.297 1.766.293.784.89 1.234.592.439 1.5.438m9.504 1.078q-1.19-.002-2-.594-.814-.593-1.234-1.625-.422-1.03-.422-2.297 0-1.294.422-2.312.419-1.03 1.25-1.61.825-.592 2.03-.593 1.171.001 2 .593.843.596 1.298 1.625.451 1.02.453 2.297-.002 1.283-.453 2.313a3.8 3.8 0 0 1-1.313 1.609c-.562.395-1.242.594-2.031.594m-3.86 3.562V17.63h1.047v6.454h.141v5.906Zm3.735-4.64q.902.001 1.5-.453.591-.45.89-1.235.295-.778.297-1.75-.002-.965-.296-1.75-.3-.78-.891-1.219-.597-.451-1.516-.453c-.605 0-1.105.149-1.5.438q-.58.422-.875 1.203-.298.767-.297 1.781 0 .985.297 1.766.294.784.89 1.234.592.439 1.5.438m9.286 1.078q-1.253-.001-2.172-.547a3.7 3.7 0 0 1-1.422-1.563q-.502-1.012-.5-2.359-.001-1.404.484-2.422c.332-.687.801-1.21 1.407-1.578q.92-.562 2.156-.562 1.266.001 2.156.593.89.582 1.344 1.672.467 1.078.437 2.578h-1.187v-.406q-.035-1.67-.719-2.516-.689-.843-2-.843-1.394 0-2.125.89c-.48.594-.719 1.446-.719 2.547q0 1.627.72 2.516.732.89 2.093.89.902 0 1.594-.421.684-.437 1.093-1.235l1.078.422q-.503 1.125-1.5 1.734a4.17 4.17 0 0 1-2.218.61m-3.282-4.188v-.968h6.547v.968Zm0 0"/>
</svg>
